<svg width="124" height="39" viewBox="0 0 124 39" fill="none" xmlns="http://www.w3.org/2000/svg">
<g clip-path="url(#clip0)">
<g clip-path="url(#clip1)">
<path fill-rule="evenodd" clip-rule="evenodd" d="M3.72932 38.3263C1.74375 38.3263 0 36.5345 0 34.5341V4.19672C0 2.19634 1.74375 0.404541 3.72932 0.404541H120.271C122.256 0.404541 124 2.19634 124 4.19672V34.5341C124 36.5345 122.256 38.3263 120.271 38.3263H3.72932Z" fill="black"/>
<path fill-rule="evenodd" clip-rule="evenodd" d="M98.1569 25.2935H96.2945C96.1222 25.2817 95.9837 25.1517 95.9629 24.983V19.6312C95.9629 18.5524 96.0852 16.9759 94.8013 16.9759C94.3503 16.9759 93.9338 17.2868 93.7267 17.7639C93.4666 18.3651 93.4315 18.9668 93.4315 19.6312V24.9387C93.4286 25.1362 93.2677 25.2935 93.0698 25.2935H91.2191C91.0328 25.2817 90.8856 25.1284 90.8856 24.9387L90.8827 15.0782C90.8989 14.8976 91.0523 14.7566 91.2399 14.7566L92.9632 14.7559C93.1247 14.7646 93.259 14.8791 93.2932 15.032V16.5396H93.3283C93.8479 15.1913 94.5764 14.5483 95.8591 14.5483C96.6913 14.5483 97.5063 14.8597 98.0265 15.7104C98.5122 16.499 98.5122 17.826 98.5122 18.7801V24.983C98.4914 25.1583 98.3397 25.2935 98.1569 25.2935ZM85.2461 25.5018C82.5411 25.5018 81.0675 23.0531 81.0675 20.0044C81.0675 16.9339 82.5585 14.5483 85.2461 14.5483C88.0036 14.5483 89.4945 16.9958 89.4945 20.1077C89.4945 23.1157 87.8479 25.5018 85.2461 25.5018ZM86.4774 17.5148C86.2693 16.8304 85.8529 16.5606 85.2635 16.5606C83.8936 16.5606 83.807 18.4897 83.807 19.6932C83.807 20.896 83.7898 23.4675 85.2461 23.4675C86.6858 23.4675 86.7549 21.394 86.7549 20.1286C86.7549 19.2984 86.7203 18.3031 86.4774 17.5148ZM79.7248 24.9979C77.8451 23.9799 75.3512 23.8677 73.2731 25.0091C73.0609 25.1267 72.8388 24.8904 72.8388 24.6835V23.254C72.8388 23.0257 72.8429 22.6351 73.0655 22.2868L76.7302 16.8509L73.5397 16.8503C73.3447 16.8503 73.1884 16.7061 73.1873 16.4958V15.087C73.1878 14.8725 73.344 14.7299 73.5321 14.7303L79.6377 14.7294C79.8332 14.7294 79.99 14.8767 79.99 15.0854V16.2936C79.9884 16.4964 79.8235 16.7613 79.5299 17.1798L76.3674 21.8497C77.5412 21.821 78.7835 22.0029 79.8505 22.6226C80.0905 22.762 80.1551 22.9696 80.1736 23.1723V24.6751C80.1736 24.8827 79.9549 25.1225 79.7248 24.9979ZM75.154 9.24321V6.55807H74.4589V5.94626H75.154V4.68108H75.8247V5.94626H76.6373V6.55807H75.8247V9.1779C75.8247 9.49602 75.9113 9.55332 76.33 9.55332H76.6373V10.1651H76.1247C75.4303 10.1651 75.154 10.0185 75.154 9.24321ZM73.7888 10.2632C73.4416 10.2632 73.2202 10.0674 73.2202 9.61021C72.8493 10.0591 72.352 10.2632 71.784 10.2632C71.0423 10.2632 70.4343 9.92032 70.4343 9.07986C70.4343 8.12508 71.1207 7.921 71.8151 7.78238C72.5575 7.63533 73.1889 7.68434 73.1889 7.16215C73.1889 6.55807 72.7074 6.46031 72.2811 6.46031C71.713 6.46031 71.2943 6.63981 71.2626 7.26004H70.5923C70.6316 6.21551 71.4125 5.84809 72.3204 5.84809C73.0546 5.84809 73.8516 6.01958 73.8516 7.00681V9.1779C73.8516 9.50417 73.8516 9.65108 74.0645 9.65108C74.1199 9.65108 74.1832 9.64307 74.2698 9.61021V10.1487C74.1516 10.2224 74.0017 10.2632 73.7888 10.2632ZM73.1808 7.98631C72.9201 8.18224 72.415 8.19025 71.965 8.27199C71.5233 8.35345 71.1443 8.5168 71.1443 9.03085C71.1443 9.48802 71.5233 9.65108 71.9339 9.65108C72.8175 9.65108 73.1808 9.07986 73.1808 8.69629V7.98631ZM70.9258 18.7152V21.7077C70.9258 22.607 71.288 23.0024 71.6271 23.4885C71.746 23.6626 71.7724 23.8701 71.6207 23.9977C71.2418 24.3257 70.5675 24.9321 70.1966 25.2733L70.1927 25.2685C70.0692 25.383 69.8922 25.3902 69.7537 25.3139C69.136 24.7831 69.026 24.5386 68.6885 24.0341C67.6687 25.1081 66.9467 25.4302 65.6259 25.4302C64.0622 25.4302 62.8452 24.4313 62.8452 22.4359C62.8452 20.8776 63.662 19.8166 64.8265 19.2973C65.8347 18.8398 67.2426 18.7569 68.32 18.6311V18.3824C68.32 17.9249 68.354 17.3847 68.0939 16.9899C67.8678 16.6357 67.4335 16.4908 67.051 16.4908C66.3427 16.4908 65.7129 16.8659 65.5578 17.6444C65.5256 17.8168 65.4039 17.988 65.2354 17.9971L63.4348 17.7956C63.2825 17.7602 63.114 17.6336 63.1579 17.3939C63.5715 15.1355 65.544 14.453 67.3117 14.453C68.215 14.453 69.3967 14.7025 70.109 15.4099C71.0134 16.2832 70.9258 17.4474 70.9258 18.7152ZM68.32 20.586V20.1703C66.9755 20.1703 65.5567 20.4672 65.5567 22.1037C65.5567 22.9349 65.9736 23.4967 66.6859 23.4967C67.2074 23.4967 67.6763 23.164 67.9721 22.6237C68.3372 21.9575 68.32 21.3344 68.32 20.586ZM64.7123 8.2637C64.6886 8.99812 65.0913 9.65108 65.9829 9.65108C66.5355 9.65108 66.9225 9.37355 67.0407 8.82691H67.704C67.5222 9.75726 66.8751 10.2632 65.9593 10.2632C64.6569 10.2632 64.0416 9.33296 64.0023 8.04334C64.0023 6.77843 64.8069 5.84809 65.92 5.84809C67.3642 5.84809 67.8066 7.24361 67.7668 8.2637H64.7123ZM65.8808 6.46031C65.1782 6.46031 64.7597 7.00681 64.7123 7.65176H67.0563C67.0251 6.9908 66.5435 6.46031 65.8808 6.46031ZM62.708 4.33838H63.3789V10.1651H62.708V4.33838ZM60.3324 10.2632C59.9143 10.2632 59.3144 10.0998 59.0145 9.6022H58.9983V10.1651H58.3275V4.33838H58.9983V6.5172H59.0145C59.2353 6.05216 59.7563 5.84809 60.3169 5.84809C61.5719 5.84809 62.1953 6.87647 62.1953 8.06777C62.1953 9.25922 61.5793 10.2632 60.3324 10.2632ZM60.2222 6.46031C59.3225 6.46031 58.9752 7.26004 58.9752 8.05162C58.9752 8.88393 59.3381 9.65108 60.2614 9.65108C61.1768 9.65108 61.4847 8.84306 61.4847 8.0189C61.4847 7.22718 61.0902 6.46031 60.2222 6.46031ZM57.3967 10.2632C57.0495 10.2632 56.8285 10.0674 56.8285 9.61021C56.4577 10.0591 55.9599 10.2632 55.3919 10.2632C54.6502 10.2632 54.0422 9.92032 54.0422 9.07986C54.0422 8.12508 54.7292 7.921 55.4236 7.78238C56.1652 7.63533 56.7968 7.68434 56.7968 7.16215C56.7968 6.55807 56.3153 6.46031 55.889 6.46031C55.3209 6.46031 54.9028 6.63981 54.8711 7.26004H54.2002C54.2395 6.21551 55.021 5.84809 55.9288 5.84809C56.6625 5.84809 57.4595 6.01958 57.4595 7.00681V9.1779C57.4595 9.50417 57.4595 9.65108 57.6729 9.65108C57.7283 9.65108 57.7911 9.64307 57.8782 9.61021V10.1487C57.7594 10.2224 57.6095 10.2632 57.3967 10.2632ZM56.7888 7.98631C56.5287 8.18224 56.0234 8.19025 55.5735 8.27199C55.1318 8.35345 54.7529 8.5168 54.7529 9.03085C54.7529 9.48802 55.1318 9.65108 55.5418 9.65108C56.426 9.65108 56.7888 9.07986 56.7888 8.69629V7.98631ZM56.0419 16.3739C56.4929 15.1292 57.5154 14.5483 58.6084 14.5483C59.3888 14.5483 60.2383 14.8806 60.758 15.6271C61.3475 16.4565 61.2264 17.6602 61.2264 18.7182L61.2252 24.9387C61.2252 25.1362 61.0643 25.2935 60.867 25.2935H59.0116C58.8253 25.2817 58.6776 25.1284 58.6776 24.9387V19.7141C58.6776 19.2984 58.7123 18.2613 58.6251 17.8675C58.4868 17.2034 58.071 17.017 57.5334 17.017C57.0823 17.017 56.614 17.3284 56.4237 17.826C56.2327 18.3245 56.2501 19.1529 56.2501 19.7141V24.9387C56.2501 25.1362 56.0897 25.2935 55.8919 25.2935H54.0364C53.8501 25.2817 53.7026 25.1284 53.7026 24.9387L53.7013 19.7141C53.7013 18.6144 53.8744 16.9958 52.5568 16.9958C51.2213 16.9958 51.2738 18.5727 51.2738 19.7141L51.2729 24.9387C51.2729 25.1362 51.1122 25.2935 50.9145 25.2935H49.0573C48.8802 25.2817 48.739 25.1445 48.7251 24.9692L48.7262 15.112C48.7262 14.9136 48.8866 14.7566 49.0844 14.7566L50.8141 14.7559C50.9952 14.7657 51.1409 14.907 51.1523 15.087V16.3739H51.187C51.638 15.1292 52.4872 14.5483 53.6316 14.5483C54.7932 14.5483 55.5217 15.1292 56.0419 16.3739ZM52.7481 4.33838H53.4188V10.1651H52.7481V4.33838ZM51.1538 5.94626H51.8249V10.1651H51.1538V5.94626ZM51.1538 4.33838H51.8249V5.18698H51.1538V4.33838ZM50.207 10.2632C49.8598 10.2632 49.639 10.0674 49.639 9.61021C49.2678 10.0591 48.7707 10.2632 48.2025 10.2632C47.4606 10.2632 46.853 9.92032 46.853 9.07986C46.853 8.12508 47.5395 7.921 48.2339 7.78238C48.976 7.63533 49.6073 7.68434 49.6073 7.16215C49.6073 6.55807 49.126 6.46031 48.6997 6.46031C48.1313 6.46031 47.7131 6.63981 47.6814 7.26004H47.0107C47.0501 6.21551 47.8315 5.84809 48.7393 5.84809C49.4731 5.84809 50.2703 6.01958 50.2703 7.00681V9.1779C50.2703 9.50417 50.2703 9.65108 50.4833 9.65108C50.5387 9.65108 50.6019 9.64307 50.6887 9.61021V10.1487C50.5702 10.2224 50.4202 10.2632 50.207 10.2632ZM49.5994 7.98631C49.339 8.18224 48.8338 8.19025 48.3839 8.27199C47.9418 8.35345 47.5632 8.5168 47.5632 9.03085C47.5632 9.48802 47.9418 9.65108 48.3525 9.65108C49.2364 9.65108 49.5994 9.07986 49.5994 8.69629V7.98631ZM44.643 10.1651L43.1276 5.94626H43.8774L45.0216 9.4633H45.0376L46.1504 5.94626H46.853L45.3611 10.1651H44.643ZM42.8439 10.1651L42.2282 8.41076H39.8443L39.2132 10.1651H38.4397L40.6418 4.33838H41.4704L43.6724 10.1651H42.8439ZM41.0521 5.04035H41.0363L40.0812 7.75766H41.9915L41.0521 5.04035ZM43.9686 18.6311V18.3824C43.9686 17.9249 44.0034 17.3847 43.743 16.9899C43.5167 16.6357 43.0823 16.4908 42.6999 16.4908C41.9917 16.4908 41.3613 16.8659 41.2072 17.6444C41.1747 17.8168 41.0531 17.988 40.8843 17.9971L39.0842 17.7956C38.9317 17.7602 38.7626 17.6336 38.8069 17.3939C39.2203 15.1355 41.1929 14.453 42.9606 14.453C43.8641 14.453 45.046 14.7025 45.7589 15.4099C46.662 16.2832 46.5749 17.4474 46.5749 18.7152V21.7077C46.5749 22.607 46.9369 23.0024 47.2762 23.4885C47.3948 23.6626 47.4213 23.8701 47.2699 23.9977C46.8907 24.3257 46.2164 24.9321 45.8454 25.2733L45.8413 25.2685C45.7184 25.383 45.5408 25.3902 45.4027 25.3139C44.7855 24.7831 44.6748 24.5386 44.3374 24.0341C43.318 25.1081 42.5955 25.4302 41.2753 25.4302C39.7108 25.4302 38.4951 24.4313 38.4951 22.4359C38.4951 20.8776 39.3118 19.8166 40.4756 19.2973C41.4836 18.8398 42.8912 18.7569 43.9686 18.6311ZM42.3348 23.4967C42.8566 23.4967 43.326 23.164 43.6208 22.6237C43.9858 21.9575 43.9686 21.3344 43.9686 20.586V20.1703C42.6247 20.1703 41.2053 20.4672 41.2053 22.1037C41.2053 22.9349 41.6229 23.4967 42.3348 23.4967Z" fill="white"/>
<path fill-rule="evenodd" clip-rule="evenodd" d="M76.7087 32.5082C76.4207 32.757 76.146 32.6242 76.2737 32.2955C76.696 31.2112 77.641 28.7806 77.1934 28.191C76.7457 27.6009 74.2368 27.9112 73.1095 28.0505C72.7678 28.0928 72.7151 27.7855 73.0228 27.5627C75.0245 26.1158 78.3044 26.5332 78.6855 27.0179C79.0695 27.5068 78.5849 30.8927 76.7087 32.5082ZM75.7382 29.9013C72.2415 32.5576 67.1716 33.9712 62.8061 33.9712C56.6882 33.9712 51.179 31.643 47.0093 27.7671C46.6824 27.4627 46.9743 27.0466 47.3674 27.2824C51.8658 29.9774 57.4285 31.6 63.1734 31.6C67.0495 31.6 71.3097 30.7718 75.2298 29.0611C75.8208 28.8025 76.3166 29.4618 75.7382 29.9013Z" fill="#F8971F"/>
<path fill-rule="evenodd" clip-rule="evenodd" d="M34.3028 30.2054C34.3028 32.2838 32.6503 33.9681 30.6117 33.9681H8.93486C6.8963 33.9681 5.24365 32.2838 5.24365 30.2054V8.10828C5.24365 6.03003 6.8963 4.34546 8.93486 4.34546H30.6117C32.6503 4.34546 34.3028 6.03003 34.3028 8.10828V30.2054Z" fill="white"/>
<path fill-rule="evenodd" clip-rule="evenodd" d="M34.3293 30.3254C34.3293 32.3882 32.6886 34.0608 30.6647 34.0608H8.86795C6.84413 34.0608 5.20361 32.3882 5.20361 30.3254V14.0396C5.20361 14.0396 11.4017 15.1349 19.7148 15.0728C27.5203 15.0146 34.3293 14.0396 34.3293 14.0396V30.3254Z" fill="#E77B1A"/>
<path fill-rule="evenodd" clip-rule="evenodd" d="M32.382 21.8092C32.3743 21.8141 32.3646 21.8146 32.3562 21.8113C32.1192 21.7113 31.8577 21.6139 31.4976 21.6139C31.1356 21.6139 30.9597 21.7462 30.9597 22.0186C30.9597 22.2477 31.0734 22.3361 31.3544 22.5314L32.0323 22.861C32.4965 23.1383 32.7308 23.5401 32.7308 24.0562C32.7308 24.896 32.1269 25.4606 31.2278 25.4606C30.6537 25.4606 30.0739 25.2305 29.9634 25.1841C29.9525 25.1791 29.9455 25.1682 29.9461 25.1561L29.9937 24.2054C29.9943 24.1961 29.9991 24.1874 30.007 24.1824C30.0147 24.1776 30.0243 24.1765 30.033 24.1803C30.0667 24.195 30.1113 24.2186 30.1624 24.2464C30.3598 24.3525 30.6899 24.5301 31.0509 24.5301C31.467 24.5301 31.6606 24.3989 31.6606 24.1169C31.6606 23.9539 31.5885 23.7998 31.2357 23.5779L30.6588 23.2022C30.2606 22.9441 29.9461 22.7402 29.9461 22.0934C29.9461 21.31 30.5548 20.7415 31.3938 20.7415C31.6362 20.7415 32.013 20.7731 32.4324 20.9252C32.4442 20.9295 32.452 20.9415 32.4511 20.9541L32.3951 21.7867C32.3946 21.796 32.3894 21.8042 32.382 21.8092ZM28.0607 25.4247C27.5553 25.4247 27.2212 25.3606 27.0553 25.0484V27.1375C27.0553 27.1533 27.0424 27.1664 27.0268 27.1664H26.0773C26.0618 27.1664 26.0491 27.1533 26.0491 27.1375V21.6271C26.0491 21.4406 26.0483 21.2783 26.0475 21.1378C26.0471 21.0295 26.0468 20.9344 26.0468 20.8496C26.0468 20.842 26.0497 20.8344 26.0551 20.8288C26.0602 20.8239 26.0675 20.8207 26.0749 20.8207L26.9063 20.8229C26.9213 20.8229 26.9335 20.8349 26.9344 20.8502C26.9395 20.946 26.9392 20.9858 26.9384 21.0919C26.9381 21.1306 26.9375 21.1788 26.9375 21.2416C27.1063 20.8917 27.4408 20.7415 28.0373 20.7415C28.9308 20.7415 29.5081 21.6812 29.5081 23.136C29.5081 24.5908 28.9804 25.4247 28.0607 25.4247ZM28.5586 23.1808C28.5586 22.1246 28.3031 21.6113 27.7772 21.6113C27.298 21.6113 27.0553 22.1109 27.0553 23.0961C27.0553 23.7614 27.1775 24.5543 27.7619 24.5543C28.2756 24.5543 28.5586 24.0665 28.5586 23.1808ZM23.9811 25.4247C23.4759 25.4247 23.1418 25.3606 22.9756 25.0484V27.1375C22.9756 27.1533 22.9629 27.1664 22.9474 27.1664H21.9979C21.9824 27.1664 21.9697 27.1533 21.9697 27.1375V21.6271C21.9697 21.4406 21.9689 21.2783 21.968 21.1378C21.9675 21.0295 21.9671 20.9344 21.9671 20.8496C21.9671 20.842 21.97 20.8344 21.9753 20.8288C21.9807 20.8239 21.9879 20.8207 21.9955 20.8207L22.8268 20.8229C22.8417 20.8229 22.8541 20.8349 22.8549 20.8502C22.8597 20.946 22.8597 20.9858 22.8586 21.0919C22.8586 21.1306 22.8581 21.1788 22.8578 21.2416C23.0266 20.8917 23.3611 20.7415 23.9578 20.7415C24.8513 20.7415 25.4285 21.6812 25.4285 23.136C25.4285 24.5908 24.9009 25.4247 23.9811 25.4247ZM23.6977 21.6113C23.2185 21.6113 22.9756 22.1109 22.9756 23.0961C22.9756 23.7614 23.0981 24.5543 23.6824 24.5543C24.1962 24.5543 24.4792 24.0665 24.4792 23.1808C24.4792 22.1246 24.2236 21.6113 23.6977 21.6113ZM21.1272 25.4355C21.1283 25.4443 21.1258 25.4525 21.1204 25.4585C21.1151 25.4645 21.1073 25.4683 21.0993 25.4683H20.2417C20.2272 25.4683 20.2149 25.4568 20.2136 25.4421C20.2009 25.3048 20.2057 25.1775 20.2108 25.0425C20.2127 24.9921 20.2147 24.9408 20.2156 24.8877C19.9963 25.2196 19.6906 25.54 19.1268 25.54C18.5269 25.54 17.9194 25.0671 17.9194 24.1628C17.9194 22.7523 19.0433 22.5718 20.0226 22.5718H20.1856V22.4308C20.1856 22.1766 20.117 21.5844 19.4791 21.5844C18.9982 21.5844 18.5867 21.8606 18.419 22.0229C18.411 22.0311 18.3992 22.0328 18.389 22.029C18.3788 22.025 18.3719 22.0152 18.3713 22.0037L18.3176 21.111C18.3169 21.1 18.323 21.0892 18.3328 21.0836C18.5885 20.9475 18.9752 20.7415 19.5938 20.7415C20.8691 20.7415 21.1303 21.4915 21.1303 22.6183V24.6269C21.1303 24.7505 21.1269 24.8675 21.1235 24.9807C21.1178 25.1661 21.1133 25.3256 21.1272 25.4355ZM20.1856 23.2186H20.1299C19.2425 23.2186 18.8642 23.469 18.8642 24.0557C18.8642 24.4668 19.0905 24.7325 19.4408 24.7325C19.9492 24.7325 20.1856 24.3246 20.1856 23.4488V23.2186Z" fill="white"/>
<path fill-rule="evenodd" clip-rule="evenodd" d="M16.7498 23.368C16.7498 26.2434 14.4631 28.5749 11.6423 28.5749C8.82161 28.5749 6.53491 26.2434 6.53491 23.368C6.53491 20.4926 8.82161 18.1619 11.6423 18.1619C14.4631 18.1619 16.7498 20.4926 16.7498 23.368Z" fill="#192B71"/>
<path fill-rule="evenodd" clip-rule="evenodd" d="M15.4314 25.9461C15.3575 26.925 14.3865 27.6611 13.7652 27.9606C13.0632 28.2986 11.8289 28.4957 10.7914 27.9606C9.33222 27.2072 8.20561 24.4774 8.03945 24.1763C7.87315 23.8746 8.00238 23.6299 8.35344 23.5359C8.70436 23.4418 8.94465 23.6865 8.94465 23.6865C8.94465 23.6865 10.4227 25.9243 10.4773 25.9999C10.5883 26.1527 10.6437 26.0591 10.6437 26.0591V21.3137H11.8997L11.9415 24.8764H12.3453V23.1218H13.1766V24.9705H13.6172V23.5543H14.3563V25.2867H14.7761V24.1007H15.4297C15.4297 24.1007 15.5052 24.9666 15.4314 25.9461ZM13.1277 21.3137H14.1806V21.9731H13.1277V21.3137ZM12.5517 20.2144L13.3276 19.5792L13.6458 20.0337L12.8818 20.6689L12.5517 20.2144ZM10.7176 18.9417H11.8073V20.1842H10.7176V18.9417ZM9.47991 21.9731H8.42743V21.3137H9.47991V21.9731ZM9.01161 20.0337L9.44561 19.6381L10.1636 20.3914L9.77558 20.7865L9.01161 20.0337Z" fill="white"/>
<path fill-rule="evenodd" clip-rule="evenodd" d="M29.8302 10.7942H29.1931C29.134 10.7904 29.087 10.7452 29.0799 10.6869V8.83602C29.0799 8.46298 29.1213 7.91775 28.6826 7.91775C28.5282 7.91775 28.386 8.02534 28.3148 8.19023C28.2259 8.39837 28.2141 8.60638 28.2141 8.83602V10.6717C28.2127 10.7396 28.158 10.7942 28.0902 10.7942H27.4573C27.3936 10.7898 27.3432 10.737 27.3432 10.672L27.3421 7.26156C27.3474 7.1992 27.4001 7.15047 27.4643 7.15047L28.0537 7.15019C28.1089 7.15314 28.1547 7.1926 28.1665 7.24569V7.76719H28.1785C28.3563 7.30089 28.6054 7.07828 29.0445 7.07828C29.3291 7.07828 29.6078 7.186 29.7858 7.48011C29.9519 7.75258 29.9519 8.21172 29.9519 8.54178V10.6869C29.9448 10.7473 29.8928 10.7942 29.8302 10.7942ZM25.4141 10.8661C24.4888 10.8661 23.9846 10.0195 23.9846 8.96495C23.9846 7.90328 24.4949 7.07828 25.4141 7.07828C26.357 7.07828 26.8673 7.92491 26.8673 9.00091C26.8673 10.0411 26.3036 10.8661 25.4141 10.8661ZM25.8351 8.10413C25.7641 7.86747 25.6216 7.77435 25.4201 7.77435C24.9512 7.77435 24.9217 8.44121 24.9217 8.85737C24.9217 9.27338 24.9158 10.163 25.4141 10.163C25.9063 10.163 25.9301 9.44572 25.9301 9.00807C25.9301 8.72113 25.9181 8.37689 25.8351 8.10413ZM23.5823 10.6918C22.9395 10.3398 22.0864 10.3013 21.3756 10.696C21.3027 10.7366 21.2269 10.6549 21.2269 10.5834V10.089C21.2269 10.01 21.2283 9.8748 21.3046 9.75443L22.5582 7.87463H21.4667C21.4 7.87463 21.3464 7.82491 21.3461 7.75174V7.26465C21.3464 7.19064 21.3997 7.1412 21.4642 7.1412H23.5528C23.6195 7.1412 23.673 7.19204 23.6733 7.26409L23.673 7.68193C23.6725 7.75202 23.6161 7.84345 23.516 7.98868L22.4339 9.60316C22.8356 9.59347 23.2605 9.65611 23.6254 9.87058C23.7078 9.91904 23.7297 9.99053 23.7362 10.0606V10.5806C23.7362 10.6521 23.6611 10.7349 23.5823 10.6918ZM22.2727 12.1031C21.0798 13.023 19.3504 13.5126 17.8616 13.5126C15.7742 13.5126 13.8951 12.7061 12.4728 11.3636C12.3612 11.2584 12.4606 11.1143 12.5949 11.196C14.1293 12.1292 16.0267 12.6914 17.9867 12.6914C19.3087 12.6914 20.7622 12.4046 22.0994 11.8118C22.3009 11.7223 22.4702 11.9507 22.2727 12.1031ZM20.3803 10.787L20.3786 10.7858C20.3366 10.8252 20.276 10.8276 20.2285 10.8012C20.0175 10.6178 19.9799 10.5331 19.8645 10.3585C19.5156 10.7299 19.2686 10.8412 18.8168 10.8412C18.2819 10.8412 17.8659 10.4963 17.8659 9.80597C17.8659 9.26678 18.1451 8.90035 18.5433 8.72057C18.888 8.56242 19.3697 8.53363 19.738 8.49065V8.40413C19.738 8.24599 19.75 8.05905 19.6608 7.92267C19.5835 7.80033 19.4349 7.75005 19.3041 7.75005C19.0619 7.75005 18.8463 7.87983 18.7935 8.14879C18.7824 8.20877 18.7407 8.26776 18.6833 8.27085L18.0674 8.20132C18.0151 8.1891 17.9573 8.14542 17.9726 8.06242C18.114 7.28151 18.789 7.04541 19.3935 7.04541C19.7026 7.04541 20.1067 7.13165 20.3504 7.37631C20.6594 7.678 20.6297 8.08067 20.6297 8.5193V9.55386C20.6297 9.86539 20.7534 10.0018 20.8697 10.1696C20.9103 10.2301 20.9193 10.3019 20.8675 10.3461C20.7377 10.4596 20.5072 10.6692 20.3803 10.787ZM19.738 9.0224C19.2783 9.0224 18.793 9.12535 18.793 9.69123C18.793 9.97859 18.9357 10.1727 19.1792 10.1727C19.3577 10.1727 19.5181 10.0579 19.6194 9.87086C19.7439 9.64094 19.738 9.42493 19.738 9.16622V9.0224ZM17.3114 10.6717C17.3114 10.7396 17.2563 10.7942 17.189 10.7942H16.5543C16.4904 10.7898 16.4401 10.737 16.4401 10.672V8.86453C16.4401 8.72113 16.4517 8.36256 16.4221 8.22618C16.3748 7.99668 16.2322 7.93208 16.0487 7.93208C15.8943 7.93208 15.7342 8.03966 15.6688 8.21172C15.6035 8.38405 15.6096 8.67099 15.6096 8.86453V10.6717C15.6096 10.7396 15.5546 10.7942 15.4871 10.7942H14.8525C14.7886 10.7898 14.7383 10.737 14.7383 10.672L14.7377 8.86453C14.7377 8.48419 14.797 7.92491 14.3463 7.92491C13.8896 7.92491 13.9072 8.47015 13.9072 8.86453L13.9069 10.6717C13.9072 10.7396 13.8522 10.7942 13.7845 10.7942H13.149C13.0887 10.7901 13.0402 10.7426 13.0354 10.6818L13.0359 7.27294C13.0359 7.20468 13.0909 7.15047 13.1585 7.15047L13.7502 7.15019C13.8122 7.15342 13.862 7.20257 13.8658 7.26465V7.70974H13.8777C14.0318 7.27926 14.3225 7.07828 14.714 7.07828C15.1114 7.07828 15.3604 7.27926 15.5384 7.70974C15.6924 7.27926 16.0425 7.07828 16.4162 7.07828C16.6833 7.07828 16.9736 7.19316 17.1516 7.45131C17.3533 7.73854 17.3118 8.15427 17.3118 8.52015L17.3114 10.6717ZM12.1077 10.787L12.1063 10.7858C12.064 10.8252 12.0034 10.8276 11.9563 10.8012C11.7449 10.6178 11.707 10.5331 11.592 10.3585C11.243 10.7299 10.9961 10.8412 10.5442 10.8412C10.0094 10.8412 9.59326 10.4963 9.59326 9.80597C9.59326 9.26678 9.87254 8.90035 10.271 8.72057C10.6156 8.56242 11.0971 8.53363 11.4658 8.49065V8.40413C11.4658 8.24599 11.4774 8.05905 11.3885 7.92267C11.3111 7.80033 11.1627 7.75005 11.0315 7.75005C10.7893 7.75005 10.5738 7.87983 10.5209 8.14879C10.5099 8.20877 10.4682 8.26776 10.4107 8.27085L9.79483 8.20132C9.74275 8.1891 9.68475 8.14542 9.70004 8.06242C9.8414 7.28151 10.5161 7.04541 11.1209 7.04541C11.43 7.04541 11.8341 7.13165 12.0778 7.37631C12.3868 7.678 12.3574 8.08067 12.3574 8.5193V9.55386C12.3574 9.86539 12.4808 10.0018 12.5971 10.1696C12.6377 10.2301 12.6467 10.3019 12.5949 10.3461C12.4652 10.4596 12.2347 10.6692 12.1077 10.787ZM11.4658 9.0224C11.006 9.0224 10.5208 9.12535 10.5208 9.69123C10.5208 9.97859 10.6631 10.1727 10.907 10.1727C11.0851 10.1727 11.2458 10.0579 11.3468 9.87086C11.4717 9.64094 11.4658 9.42493 11.4658 9.16622V9.0224ZM22.769 11.5108C22.6164 11.3064 21.7606 11.4139 21.3759 11.4619C21.2595 11.4765 21.2415 11.3702 21.3464 11.2932C22.0292 10.7918 23.1481 10.9367 23.2782 11.1043C23.4089 11.2738 23.2437 12.4462 22.6038 13.0059C22.5054 13.0921 22.412 13.0459 22.4552 12.9323C22.5993 12.5564 22.9216 11.7148 22.769 11.5108Z" fill="black"/>
</g>
</g>
<defs>
<clipPath id="clip0">
<rect width="124" height="38" fill="white" transform="translate(0 0.404541)"/>
</clipPath>
<clipPath id="clip1">
<rect width="124" height="38" fill="white" transform="translate(0 0.404541)"/>
</clipPath>
</defs>
</svg>
