<svg width="124" height="39" viewBox="0 0 124 39" fill="none" xmlns="http://www.w3.org/2000/svg">
<g clip-path="url(#clip0)">
<g clip-path="url(#clip1)">
<g clip-path="url(#clip2)">
<path fill-rule="evenodd" clip-rule="evenodd" d="M3.72932 38.3263C1.74375 38.3263 0 36.5345 0 34.5341V4.19672C0 2.19634 1.74375 0.404541 3.72932 0.404541H120.271C122.256 0.404541 124 2.19634 124 4.19672V34.5341C124 36.5345 122.256 38.3263 120.271 38.3263H3.72932Z" fill="black"/>
<g clip-path="url(#clip3)">
<path fill-rule="evenodd" clip-rule="evenodd" d="M27.1569 19.1605C27.1298 16.105 29.6173 14.6184 29.731 14.5492C28.3223 12.4607 26.1388 12.1753 25.3715 12.1526C23.5376 11.9563 21.7587 13.2684 20.8245 13.2684C19.8716 13.2684 18.4331 12.1715 16.8826 12.2038C14.8874 12.2351 13.0209 13.4097 11.9972 15.2337C9.88451 18.9529 11.4602 24.4184 13.4842 27.4246C14.4968 28.8969 15.6799 30.5408 17.2285 30.483C18.7435 30.4195 19.3094 29.5008 21.1377 29.5008C22.9493 29.5008 23.4807 30.483 25.0601 30.446C26.686 30.4195 27.7097 28.9671 28.6868 27.4815C29.8569 25.794 30.3268 24.1321 30.3454 24.0467C30.3072 24.0335 27.1876 22.8228 27.1569 19.1605Z" fill="white"/>
<path fill-rule="evenodd" clip-rule="evenodd" d="M24.1733 10.1751C24.9882 9.13892 25.5457 7.72918 25.391 6.29858C24.2116 6.35167 22.7366 7.12812 21.8873 8.14158C21.1358 9.03464 20.4645 10.4984 20.6379 11.875C21.9628 11.9755 23.3231 11.1952 24.1733 10.1751Z" fill="white"/>
</g>
<g clip-path="url(#clip4)">
<path fill-rule="evenodd" clip-rule="evenodd" d="M49.0826 30.2716H46.9653L45.8055 26.5657H41.7741L40.6693 30.2716H38.6079L42.602 17.655H45.069L49.0826 30.2716ZM45.4559 25.0109L44.407 21.7165C44.2961 21.3799 44.0882 20.5873 43.7814 19.3397H43.7441C43.622 19.8763 43.4253 20.6689 43.1549 21.7165L42.1247 25.0109H45.4559Z" fill="white"/>
<path fill-rule="evenodd" clip-rule="evenodd" d="M59.354 25.6112C59.354 27.1584 58.9428 28.3813 58.1205 29.2791C57.3839 30.0783 56.4693 30.4775 55.3776 30.4775C54.1991 30.4775 53.3525 30.0471 52.837 29.1862H52.7997V33.9786H50.8119V24.1692C50.8119 23.1965 50.7868 22.1982 50.7383 21.1743H52.4864L52.5973 22.6163H52.6346C53.2975 21.5298 54.3035 20.9875 55.6535 20.9875C56.7089 20.9875 57.59 21.4113 58.2948 22.2598C59.0015 23.1093 59.354 24.2261 59.354 25.6112ZM57.3289 25.6851C57.3289 24.7996 57.1331 24.0696 56.7397 23.4951C56.3099 22.896 55.7328 22.5964 55.0093 22.5964C54.5189 22.5964 54.0732 22.7632 53.6751 23.0922C53.2761 23.424 53.015 23.8573 52.8929 24.3939C52.8314 24.6442 52.8006 24.8489 52.8006 25.0101V26.527C52.8006 27.1887 53.0001 27.7471 53.3992 28.2031C53.7982 28.6591 54.3166 28.8867 54.9543 28.8867C55.7029 28.8867 56.2856 28.5928 56.7024 28.0069C57.1201 27.42 57.3289 26.6464 57.3289 25.6851Z" fill="white"/>
<path fill-rule="evenodd" clip-rule="evenodd" d="M69.6443 25.6112C69.6443 27.1584 69.2331 28.3813 68.4099 29.2791C67.6743 30.0783 66.7596 30.4775 65.6679 30.4775C64.4894 30.4775 63.6429 30.0471 63.1282 29.1862H63.0909V33.9786H61.1032V24.1692C61.1032 23.1965 61.078 22.1982 61.0295 21.1743H62.7777L62.8886 22.6163H62.9259C63.5879 21.5298 64.5938 20.9875 65.9448 20.9875C66.9993 20.9875 67.8803 21.4113 68.587 22.2598C69.2909 23.1093 69.6443 24.2261 69.6443 25.6112ZM67.6193 25.6851C67.6193 24.7996 67.4225 24.0696 67.0291 23.4951C66.5993 22.896 66.024 22.5964 65.2996 22.5964C64.8083 22.5964 64.3636 22.7632 63.9645 23.0922C63.5655 23.424 63.3054 23.8573 63.1832 24.3939C63.1226 24.6442 63.0909 24.8489 63.0909 25.0101V26.527C63.0909 27.1887 63.2904 27.7471 63.6876 28.2031C64.0867 28.6582 64.605 28.8867 65.2446 28.8867C65.9933 28.8867 66.576 28.5928 66.9927 28.0069C67.4104 27.42 67.6193 26.6464 67.6193 25.6851Z" fill="white"/>
<path fill-rule="evenodd" clip-rule="evenodd" d="M81.1492 26.7336C81.1492 27.8067 80.7828 28.6799 80.0472 29.3539C79.2389 30.0906 78.1136 30.4584 76.6675 30.4584C75.3324 30.4584 74.2621 30.1968 73.4519 29.6725L73.9125 27.9878C74.7851 28.5244 75.7426 28.7937 76.7859 28.7937C77.5346 28.7937 78.1173 28.6211 78.5359 28.2779C78.9527 27.9347 79.1606 27.474 79.1606 26.8995C79.1606 26.3875 78.989 25.9562 78.645 25.6063C78.3028 25.2565 77.7313 24.9313 76.9332 24.6308C74.7609 23.8069 73.6757 22.6001 73.6757 21.0131C73.6757 19.9759 74.0561 19.1255 74.8178 18.4638C75.5767 17.8011 76.5892 17.4702 77.8553 17.4702C78.9844 17.4702 79.9223 17.6703 80.6709 18.0694L80.174 19.7171C79.4748 19.3303 78.6841 19.1369 77.7994 19.1369C77.1001 19.1369 76.5538 19.3123 76.1622 19.6611C75.8312 19.9731 75.6653 20.3532 75.6653 20.8035C75.6653 21.3022 75.8545 21.7146 76.2349 22.0388C76.5659 22.3384 77.1672 22.6627 78.0399 23.0125C79.1074 23.4495 79.8915 23.9605 80.3959 24.5464C80.8984 25.1304 81.1492 25.8614 81.1492 26.7336Z" fill="white"/>
<path fill-rule="evenodd" clip-rule="evenodd" d="M87.7212 22.6911H85.5303V27.1081C85.5303 28.2315 85.9163 28.7927 86.6901 28.7927C87.0453 28.7927 87.3399 28.7614 87.573 28.6989L87.628 30.2338C87.2364 30.3826 86.7209 30.4575 86.0822 30.4575C85.2972 30.4575 84.6837 30.2138 84.2409 29.7275C83.7999 29.2402 83.578 28.423 83.578 27.2749V22.6892H82.2727V21.1723H83.578V19.5066L85.5303 18.9075V21.1723H87.7212V22.6911Z" fill="white"/>
<path fill-rule="evenodd" clip-rule="evenodd" d="M97.6067 25.6479C97.6067 27.0463 97.2133 28.1944 96.4283 29.0922C95.605 30.0165 94.5123 30.4773 93.1502 30.4773C91.8375 30.4773 90.7923 30.0345 90.0129 29.149C89.2335 28.2636 88.8438 27.1458 88.8438 25.7987C88.8438 24.3889 89.2447 23.2342 90.0493 22.3364C90.852 21.4377 91.9354 20.9883 93.2975 20.9883C94.6102 20.9883 95.6665 21.431 96.4637 22.3174C97.2263 23.1773 97.6067 24.2875 97.6067 25.6479ZM95.5444 25.7133C95.5444 24.8743 95.3682 24.1547 95.0111 23.5546C94.5944 22.8284 93.9986 22.4663 93.2266 22.4663C92.4276 22.4663 91.8207 22.8294 91.4039 23.5546C91.0468 24.1557 90.8706 24.8866 90.8706 25.7513C90.8706 26.5903 91.0468 27.3098 91.4039 27.909C91.8337 28.6352 92.4342 28.9974 93.2089 28.9974C93.9678 28.9974 94.5636 28.6276 94.9934 27.89C95.3598 27.2786 95.5444 26.5514 95.5444 25.7133Z" fill="white"/>
<path fill-rule="evenodd" clip-rule="evenodd" d="M104.068 22.9519C103.871 22.9149 103.661 22.896 103.441 22.896C102.742 22.896 102.201 23.1643 101.821 23.7018C101.49 24.1758 101.324 24.775 101.324 25.4983V30.2717H99.3372L99.3558 24.0393C99.3558 22.9908 99.3307 22.0361 99.2812 21.1753H101.013L101.085 22.9159H101.14C101.35 22.3177 101.681 21.836 102.134 21.4748C102.577 21.1497 103.055 20.9875 103.571 20.9875C103.755 20.9875 103.921 21.0008 104.068 21.0245V22.9519Z" fill="white"/>
<path fill-rule="evenodd" clip-rule="evenodd" d="M112.958 25.2926C112.958 25.6547 112.934 25.96 112.885 26.2094H106.922C106.945 27.1081 107.233 27.7954 107.787 28.2695C108.289 28.6932 108.939 28.9056 109.737 28.9056C110.62 28.9056 111.426 28.7624 112.15 28.4752L112.462 29.8783C111.615 30.2537 110.615 30.4405 109.462 30.4405C108.075 30.4405 106.986 30.0252 106.193 29.1957C105.403 28.3662 105.007 27.2522 105.007 25.8548C105.007 24.483 105.375 23.3406 106.112 22.4295C106.884 21.4568 107.928 20.9705 109.24 20.9705C110.53 20.9705 111.506 21.4568 112.169 22.4295C112.694 23.2022 112.958 24.1578 112.958 25.2926ZM111.062 24.7683C111.075 24.1692 110.946 23.6515 110.676 23.2145C110.332 22.6523 109.803 22.3717 109.092 22.3717C108.442 22.3717 107.914 22.6457 107.51 23.1955C107.179 23.6326 106.982 24.1568 106.922 24.7674H111.062V24.7683Z" fill="white"/>
</g>
<g clip-path="url(#clip5)">
<path fill-rule="evenodd" clip-rule="evenodd" d="M44.7987 9.89344C44.7987 11.0093 44.4696 11.8493 43.8123 12.4133C43.2035 12.9338 42.3383 13.1945 41.2176 13.1945C40.6619 13.1945 40.1864 13.1699 39.7883 13.1206V7.02371C40.3076 6.93839 40.867 6.89478 41.4712 6.89478C42.5387 6.89478 43.3433 7.13084 43.8859 7.60296C44.4938 8.13671 44.7987 8.89989 44.7987 9.89344ZM43.7685 9.92093C43.7685 9.19757 43.5801 8.64297 43.2035 8.25617C42.8268 7.87031 42.2767 7.67691 41.5523 7.67691C41.2446 7.67691 40.9826 7.69777 40.7654 7.74138V12.3764C40.8857 12.3953 41.1057 12.4039 41.4255 12.4039C42.1732 12.4039 42.7503 12.1924 43.1568 11.7696C43.5633 11.3468 43.7685 10.7306 43.7685 9.92093Z" fill="white"/>
<path fill-rule="evenodd" clip-rule="evenodd" d="M50.2611 10.8682C50.2611 11.5555 50.0681 12.1186 49.6821 12.5604C49.2775 13.0145 48.7414 13.2411 48.072 13.2411C47.4268 13.2411 46.9131 13.024 46.5299 12.5879C46.1477 12.1528 45.9565 11.6039 45.9565 10.9421C45.9565 10.25 46.1533 9.68217 46.5486 9.24132C46.9439 8.80048 47.4753 8.57959 48.1447 8.57959C48.7899 8.57959 49.3083 8.79669 49.7008 9.23184C50.0737 9.65467 50.2611 10.2007 50.2611 10.8682ZM49.2477 10.9004C49.2477 10.488 49.16 10.1344 48.9857 9.83954C48.7806 9.48308 48.4888 9.30484 48.1093 9.30484C47.7168 9.30484 47.4184 9.48308 47.2133 9.83954C47.038 10.1344 46.9513 10.4937 46.9513 10.9184C46.9513 11.3308 47.039 11.6844 47.2133 11.9793C47.425 12.3357 47.7196 12.514 48.1 12.514C48.4729 12.514 48.7657 12.3329 48.9764 11.9698C49.1572 11.6693 49.2477 11.3128 49.2477 10.9004Z" fill="white"/>
<path fill-rule="evenodd" clip-rule="evenodd" d="M57.5856 8.67041L56.2104 13.1395H55.3154L54.7457 11.1988C54.6012 10.7144 54.4837 10.2328 54.3924 9.75497H54.3746C54.2898 10.2461 54.1723 10.7267 54.0213 11.1988L53.4162 13.1395H52.5109L51.2178 8.67041H52.2219L52.7188 10.795C52.8391 11.2974 52.9379 11.7762 53.0172 12.2294H53.0349C53.1076 11.8558 53.2279 11.3799 53.3976 10.8045L54.0213 8.67136H54.8175L55.4151 10.759C55.5596 11.2681 55.6771 11.7582 55.7675 12.2303H55.7946C55.8608 11.7705 55.9605 11.2804 56.0929 10.759L56.6262 8.67136H57.5856V8.67041Z" fill="white"/>
<path fill-rule="evenodd" clip-rule="evenodd" d="M62.6507 13.1396H61.6736V10.5799C61.6736 9.7911 61.379 9.39672 60.7879 9.39672C60.498 9.39672 60.264 9.5048 60.0822 9.7219C59.9022 9.939 59.8109 10.195 59.8109 10.4879V13.1386H58.8338V9.94753C58.8338 9.55504 58.8216 9.12937 58.7983 8.66862H59.657L59.7027 9.36733H59.7297C59.8435 9.15023 60.0132 8.97105 60.236 8.82789C60.5008 8.66104 60.7973 8.57666 61.1217 8.57666C61.5319 8.57666 61.8732 8.71128 62.1445 8.98148C62.482 9.31234 62.6507 9.80627 62.6507 10.4623V13.1396Z" fill="white"/>
<path fill-rule="evenodd" clip-rule="evenodd" d="M65.3453 13.1396H64.3691V6.61987H65.3453V13.1396Z" fill="white"/>
<path fill-rule="evenodd" clip-rule="evenodd" d="M71.0978 10.8682C71.0978 11.5555 70.9048 12.1186 70.5188 12.5604C70.1142 13.0145 69.5772 13.2411 68.9087 13.2411C68.2626 13.2411 67.7489 13.024 67.3666 12.5879C66.9843 12.1528 66.7932 11.6039 66.7932 10.9421C66.7932 10.25 66.9899 9.68217 67.3852 9.24132C67.7806 8.80048 68.312 8.57959 68.9805 8.57959C69.6266 8.57959 70.144 8.79669 70.5375 9.23184C70.9104 9.65467 71.0978 10.2007 71.0978 10.8682ZM70.0834 10.9004C70.0834 10.488 69.9958 10.1344 69.8214 9.83954C69.6172 9.48308 69.3245 9.30484 68.946 9.30484C68.5525 9.30484 68.2542 9.48308 68.05 9.83954C67.8747 10.1344 67.788 10.4937 67.788 10.9184C67.788 11.3308 67.8756 11.6844 68.05 11.9793C68.2616 12.3357 68.5563 12.514 68.9366 12.514C69.3096 12.514 69.6014 12.3329 69.8121 11.9698C69.9939 11.6693 70.0834 11.3128 70.0834 10.9004Z" fill="white"/>
<path fill-rule="evenodd" clip-rule="evenodd" d="M75.8266 13.1397H74.9493L74.8766 12.6249H74.8495C74.5493 13.0354 74.1214 13.2411 73.5657 13.2411C73.1508 13.2411 72.8152 13.1056 72.5625 12.8363C72.3332 12.5917 72.2185 12.2874 72.2185 11.9262C72.2185 11.3801 72.4423 10.9639 72.8926 10.6757C73.342 10.3875 73.9741 10.2463 74.788 10.2529V10.1695C74.788 9.58072 74.4841 9.28683 73.8753 9.28683C73.4417 9.28683 73.0595 9.39775 72.7294 9.6177L72.5308 8.96544C72.9392 8.70852 73.4436 8.57959 74.0384 8.57959C75.187 8.57959 75.7632 9.19582 75.7632 10.4283V12.0741C75.7632 12.5206 75.7847 12.8761 75.8266 13.1397ZM74.8123 11.6039V10.9146C73.7345 10.8957 73.1956 11.1962 73.1956 11.8153C73.1956 12.0485 73.2571 12.2229 73.383 12.3395C73.5089 12.4561 73.6692 12.514 73.8603 12.514C74.0748 12.514 74.2752 12.4448 74.458 12.3073C74.6416 12.1689 74.7544 11.9935 74.7964 11.7783C74.8067 11.7299 74.8123 11.6712 74.8123 11.6039Z" fill="white"/>
<path fill-rule="evenodd" clip-rule="evenodd" d="M81.3786 13.1396H80.5115L80.4658 12.4219H80.4388C80.1619 12.968 79.6901 13.241 79.0273 13.241C78.4977 13.241 78.0567 13.0296 77.7071 12.6068C77.3575 12.1839 77.1831 11.635 77.1831 10.961C77.1831 10.2376 77.3724 9.65172 77.7528 9.20424C78.121 8.7871 78.5723 8.57853 79.1093 8.57853C79.6995 8.57853 80.1125 8.78047 80.3474 9.18528H80.3661V6.61987H81.3441V11.9356C81.3441 12.3707 81.3553 12.7717 81.3786 13.1396ZM80.3661 11.2549V10.5097C80.3661 10.3808 80.3568 10.2765 80.339 10.1968C80.284 9.95794 80.1656 9.75695 79.9857 9.59484C79.8039 9.43272 79.5848 9.35119 79.3321 9.35119C78.9676 9.35119 78.6823 9.49814 78.4725 9.79298C78.2646 10.0878 78.1593 10.4642 78.1593 10.924C78.1593 11.3658 78.259 11.7241 78.4595 12C78.6711 12.2939 78.9564 12.4409 79.3135 12.4409C79.6342 12.4409 79.8906 12.3186 80.0855 12.073C80.2738 11.8464 80.3661 11.5734 80.3661 11.2549Z" fill="white"/>
<path fill-rule="evenodd" clip-rule="evenodd" d="M89.735 10.8682C89.735 11.5555 89.542 12.1186 89.156 12.5604C88.7514 13.0145 88.2162 13.2411 87.5459 13.2411C86.9016 13.2411 86.3879 13.024 86.0038 12.5879C85.6215 12.1528 85.4304 11.6039 85.4304 10.9421C85.4304 10.25 85.6271 9.68217 86.0224 9.24132C86.4178 8.80048 86.9492 8.57959 87.6195 8.57959C88.2638 8.57959 88.7831 8.79669 89.1747 9.23184C89.5476 9.65467 89.735 10.2007 89.735 10.8682ZM88.7225 10.9004C88.7225 10.488 88.6348 10.1344 88.4605 9.83954C88.2544 9.48308 87.9636 9.30484 87.5832 9.30484C87.1916 9.30484 86.8932 9.48308 86.6872 9.83954C86.5119 10.1344 86.4252 10.4937 86.4252 10.9184C86.4252 11.3308 86.5129 11.6844 86.6872 11.9793C86.8988 12.3357 87.1935 12.514 87.5738 12.514C87.9468 12.514 88.2405 12.3329 88.4512 11.9698C88.6311 11.6693 88.7225 11.3128 88.7225 10.9004Z" fill="white"/>
<path fill-rule="evenodd" clip-rule="evenodd" d="M94.9887 13.1396H94.0125V10.5799C94.0125 9.7911 93.7179 9.39672 93.1259 9.39672C92.8359 9.39672 92.6019 9.5048 92.421 9.7219C92.2402 9.939 92.1497 10.195 92.1497 10.4879V13.1386H91.1717V9.94753C91.1717 9.55504 91.1605 9.12937 91.1372 8.66862H91.995L92.0406 9.36733H92.0677C92.1823 9.15023 92.352 8.97105 92.5739 8.82789C92.8396 8.66104 93.1352 8.57666 93.4606 8.57666C93.8699 8.57666 94.2111 8.71128 94.4824 8.98148C94.8208 9.31234 94.9887 9.80627 94.9887 10.4623V13.1396Z" fill="white"/>
<path fill-rule="evenodd" clip-rule="evenodd" d="M101.564 9.41484H100.489V11.5859C100.489 12.1376 100.68 12.4135 101.058 12.4135C101.233 12.4135 101.379 12.3983 101.494 12.367L101.519 13.1207C101.326 13.1947 101.072 13.2317 100.76 13.2317C100.374 13.2317 100.074 13.1122 99.8564 12.8733C99.6382 12.6344 99.5301 12.2324 99.5301 11.6683V9.41484H98.8877V8.67062H99.5301V7.85151L100.488 7.55762V8.66967H101.563V9.41484H101.564Z" fill="white"/>
<path fill-rule="evenodd" clip-rule="evenodd" d="M106.737 13.1396H105.759V10.5988C105.759 9.79772 105.464 9.39669 104.874 9.39669C104.421 9.39669 104.112 9.62897 103.942 10.0935C103.913 10.1912 103.896 10.3106 103.896 10.4509V13.1386H102.92V6.61987H103.896V9.31327H103.915C104.223 8.82313 104.664 8.57853 105.235 8.57853C105.64 8.57853 105.974 8.71315 106.24 8.98335C106.571 9.3199 106.737 9.82047 106.737 10.4822V13.1396Z" fill="white"/>
<path fill-rule="evenodd" clip-rule="evenodd" d="M112.073 10.6937C112.073 10.8719 112.06 11.0217 112.036 11.144H109.106C109.119 11.5858 109.259 11.9224 109.53 12.1556C109.778 12.3642 110.098 12.4685 110.49 12.4685C110.923 12.4685 111.318 12.3983 111.675 12.257L111.827 12.9472C111.411 13.1311 110.92 13.2231 110.353 13.2231C109.672 13.2231 109.136 13.0193 108.748 12.6116C108.358 12.204 108.165 11.6569 108.165 10.9705C108.165 10.2965 108.345 9.73524 108.708 9.28777C109.086 8.80995 109.598 8.57104 110.244 8.57104C110.877 8.57104 111.357 8.80995 111.681 9.28777C111.943 9.66698 112.073 10.1363 112.073 10.6937ZM111.14 10.4368C111.148 10.142 111.083 9.88788 110.951 9.67362C110.781 9.39774 110.523 9.25933 110.174 9.25933C109.855 9.25933 109.595 9.39395 109.396 9.66414C109.234 9.87935 109.138 10.1363 109.106 10.4368H111.14Z" fill="white"/>
</g>
</g>
</g>
</g>
<defs>
<clipPath id="clip0">
<rect width="124" height="38" fill="white" transform="translate(0 0.404541)"/>
</clipPath>
<clipPath id="clip1">
<rect width="124" height="38" fill="white" transform="translate(0 0.404541)"/>
</clipPath>
<clipPath id="clip2">
<rect width="124" height="38" fill="white" transform="translate(0 0.404541)"/>
</clipPath>
<clipPath id="clip3">
<rect width="21" height="25" fill="white" transform="translate(10.2556 6.09277)"/>
</clipPath>
<clipPath id="clip4">
<rect width="75" height="17" fill="white" transform="translate(38.2256 17.4692)"/>
</clipPath>
<clipPath id="clip5">
<rect width="73" height="8" fill="white" transform="translate(39.158 6.09277)"/>
</clipPath>
</defs>
</svg>
