<svg width="54" height="54" viewBox="0 0 54 54" fill="none" xmlns="http://www.w3.org/2000/svg">
<path fill-rule="evenodd" clip-rule="evenodd" d="M26.0667 27.9018C27.5148 26.4546 27.6273 24.4413 27.6273 23.31C27.6273 18.7641 24.9363 11.7225 19.7109 11.7225C18.0819 11.7225 16.3179 12.5415 15.3009 13.8015C14.238 15.1227 13.9212 16.8192 13.9212 18.4473C13.9212 22.6773 16.3638 29.6658 21.7926 29.6658C23.3532 29.6658 25.0497 28.8963 26.0667 27.9018ZM0 27C0 33.6645 2.4147 39.7656 6.4161 44.4735C7.1712 43.2045 8.3421 41.9562 10.0755 40.9302C13.9887 38.5326 19.2591 38.2149 22.1085 38.034C21.2265 36.9027 20.2086 35.7039 20.2086 33.7374C20.2086 32.6736 20.5254 32.0409 20.8422 31.2939C20.1411 31.3623 19.4625 31.4298 18.8289 31.4298C12.1563 31.4298 8.379 26.4537 8.379 21.5451C8.379 18.6498 9.7137 15.4332 12.4047 13.1058C16.0011 10.1502 20.2761 9.6453 23.6691 9.6453H36.63L32.6034 11.9097H28.7136C30.1599 13.1058 33.1695 15.624 33.1695 20.4138C33.1695 25.074 30.5226 27.2673 27.8991 29.3472C27.0621 30.1626 26.1351 31.0446 26.1351 32.4234C26.1351 33.8031 27.0621 34.5735 27.7641 35.1387L30.0258 36.9027C32.8086 39.2103 35.3187 41.3586 35.3187 45.702C35.3187 48.5658 33.9831 51.4404 31.3776 53.6454C29.9763 53.8749 28.5399 53.9946 27.0747 53.9991C29.7189 52.839 31.0896 50.7177 31.0896 48.1671C31.0896 44.9559 29.0313 43.2594 24.2361 39.8439C23.7384 39.798 23.4216 39.798 22.7889 39.798C22.2237 39.798 18.8307 39.9123 16.1847 40.7934C14.805 41.2911 10.7793 42.8067 10.7793 47.2851C10.7793 47.772 10.8315 48.2436 10.9323 48.6972C4.2975 43.7805 0 35.892 0 27ZM51.957 16.6788C52.353 17.6355 52.6959 18.6219 52.9821 19.6317C52.6968 18.6219 52.3539 17.6364 51.957 16.6788ZM27 54C12.0888 54 0 41.9112 0 27C0 12.0879 12.0888 0 27 0C38.2563 0 47.9043 6.8877 51.957 16.6788H46.5876V9.6462H43.5735V16.6788H36.5409V19.6317H43.5735V26.7255H46.5876V19.6317H52.9812C53.6445 21.9735 54 24.4458 54 27C54 41.9112 41.9112 54 27 54Z" fill="#D6492F"/>
</svg>
