<svg width="54" height="54" viewBox="0 0 54 54" fill="none" xmlns="http://www.w3.org/2000/svg">
<path fill-rule="evenodd" clip-rule="evenodd" d="M35.3439 20.3202V20.3148C35.7957 20.3148 36.2484 20.3238 36.7011 20.313C37.2825 20.2986 37.7559 19.8 37.7559 19.2177C37.7559 18.351 37.7559 17.4834 37.7559 16.6167C37.7559 15.9948 37.2636 15.5007 36.6435 15.4998C35.7786 15.4998 34.9137 15.4989 34.0488 15.4998C33.4296 15.5007 32.9364 15.9966 32.9364 16.6185C32.9355 17.478 32.9328 18.3375 32.9391 19.197C32.94 19.3257 32.9643 19.4589 33.0048 19.5804C33.1605 20.0376 33.5799 20.3184 34.0929 20.3211C34.5096 20.3211 34.9272 20.3202 35.3439 20.3202ZM27 21.4353C23.9544 21.4335 21.4785 23.8842 21.4362 26.9154C21.3921 30.0294 23.8842 32.4963 26.8722 32.5602C29.9808 32.6268 32.4954 30.1428 32.5611 27.1215C32.6286 24.0075 30.1158 21.4335 27 21.4353ZM16.2414 24.4044V24.4782C16.2414 28.5417 16.2405 32.6052 16.2414 36.6687C16.2414 37.2528 16.7472 37.7559 17.3322 37.7559C23.7762 37.7568 30.2193 37.7568 36.6633 37.7559C37.2537 37.7559 37.7568 37.2546 37.7568 36.6651C37.7577 32.607 37.7568 28.5471 37.7568 24.4899V24.4053H35.136C35.5059 25.5879 35.6193 26.7912 35.4744 28.0179C35.3295 29.2446 34.9335 30.3858 34.29 31.4406C33.6465 32.4954 32.8104 33.3711 31.7889 34.0668C29.1393 35.8722 25.65 36.0306 22.8375 34.452C21.4164 33.6555 20.3004 32.544 19.521 31.1103C18.3609 28.9746 18.1755 26.7318 18.8559 24.4044C17.9847 24.4044 17.1189 24.4044 16.2414 24.4044ZM37.9845 40.7295C38.1276 40.7061 38.2707 40.6854 38.412 40.6548C39.5334 40.4163 40.4496 39.4812 40.6692 38.3535C40.6917 38.2302 40.7097 38.1078 40.7295 37.9854V16.0146C40.7106 15.8949 40.6935 15.7734 40.671 15.6537C40.4298 14.4234 39.4146 13.4685 38.169 13.2975C38.1168 13.2912 38.0673 13.2795 38.016 13.2705H15.9849C15.8526 13.2948 15.7185 13.3128 15.588 13.3425C14.3712 13.6197 13.4712 14.5989 13.2975 15.8319C13.2903 15.8832 13.2795 15.9345 13.2714 15.9858V38.016C13.2966 38.1546 13.3164 38.2959 13.3479 38.4345C13.617 39.6243 14.6322 40.5468 15.8409 40.7025C15.8985 40.7097 15.9579 40.7214 16.0164 40.7295H37.9845ZM27 54C12.0888 54 0 41.9112 0 27C0 12.0879 12.0888 0 27 0C41.9112 0 54 12.0879 54 27C54 41.9112 41.9112 54 27 54Z" fill="#517FA6"/>
</svg>
