<svg width="32" height="24" viewBox="0 0 32 24" fill="none" xmlns="http://www.w3.org/2000/svg">
<g filter="url(#filter0_d)">
<path fill-rule="evenodd" clip-rule="evenodd" d="M15.9999 0C9.33325 0 3.63992 4.14667 1.33325 10C3.63992 15.8533 9.33325 20 15.9999 20C22.6666 20 28.3599 15.8533 30.6666 10C28.3599 4.14667 22.6666 0 15.9999 0ZM15.9999 16.6667C12.3199 16.6667 9.33325 13.68 9.33325 10C9.33325 6.32 12.3199 3.33333 15.9999 3.33333C19.6799 3.33333 22.6666 6.32 22.6666 10C22.6666 13.68 19.6799 16.6667 15.9999 16.6667ZM15.9999 6C13.7866 6 11.9999 7.78667 11.9999 10C11.9999 12.2133 13.7866 14 15.9999 14C18.2133 14 19.9999 12.2133 19.9999 10C19.9999 7.78667 18.2133 6 15.9999 6Z" fill="white"/>
</g>
<defs>
<filter id="filter0_d" x="-0.666748" y="0" width="33.3333" height="24" filterUnits="userSpaceOnUse" color-interpolation-filters="sRGB">
<feFlood flood-opacity="0" result="BackgroundImageFix"/>
<feColorMatrix in="SourceAlpha" type="matrix" values="0 0 0 0 0 0 0 0 0 0 0 0 0 0 0 0 0 0 127 0"/>
<feOffset dy="2"/>
<feGaussianBlur stdDeviation="1"/>
<feColorMatrix type="matrix" values="0 0 0 0 0 0 0 0 0 0 0 0 0 0 0 0 0 0 0.12 0"/>
<feBlend mode="normal" in2="BackgroundImageFix" result="effect1_dropShadow"/>
<feBlend mode="normal" in="SourceGraphic" in2="effect1_dropShadow" result="shape"/>
</filter>
</defs>
</svg>
