<svg width="34" height="21" viewBox="0 0 34 21" fill="none" xmlns="http://www.w3.org/2000/svg">
<g filter="url(#filter0_d)">
<path fill-rule="evenodd" clip-rule="evenodd" d="M31.5475 15.2109L31.5523 12.7671C31.5544 11.7838 30.3966 11.4297 30.3966 11.4297L30.3959 11.4262C29.28 10.9665 28.4932 9.87044 28.4956 8.58856C28.4987 7.30531 29.291 6.21063 30.4107 5.75671C30.4213 5.75225 30.4261 5.74745 30.4374 5.74299C31.4749 5.27468 31.5643 4.37609 31.5698 4.13199L31.5746 1.67657C31.5767 0.60417 30.507 0.511603 30.2279 0.506118L3.82998 0.453321C2.36434 0.44955 2.38628 1.6392 2.38628 1.6392L2.3808 4.48272C2.3808 4.48272 2.35234 5.21125 3.30612 5.61649C3.33629 5.62951 3.35652 5.6422 3.38121 5.65523C4.57806 6.07383 5.43996 7.20383 5.43756 8.54262C5.43447 9.81833 4.65348 10.9086 3.54405 11.368L3.54508 11.369C3.54508 11.369 2.36606 11.7225 2.36434 12.717L2.3592 15.2078C2.36057 15.3833 2.42708 16.623 4.05351 16.6271L30.2814 16.6806C30.7103 16.648 31.5451 16.4317 31.5475 15.2109ZM17.0163 13.2193C16.4127 13.2159 16.3526 12.5287 16.3488 12.2905L16.3427 7.52152C16.3412 6.77419 15.7882 6.68201 15.5722 6.67342L14.5294 6.66952C13.8027 6.66656 13.8545 5.93289 13.8545 5.93289L13.8553 5.65493C13.8553 5.65493 13.8519 5.04975 14.5786 5.05271L19.918 5.08054C20.2246 5.09733 20.7665 5.20696 20.7674 5.76527L20.7663 5.93999C20.7515 6.57449 20.2865 6.68271 20.0483 6.69629L18.9745 6.68991C18.8268 6.69265 18.283 6.76171 18.2824 7.63055L18.2874 12.3034C18.2685 12.6361 18.1194 13.2329 17.3188 13.2226L17.0163 13.2193Z" fill="white"/>
</g>
<defs>
<filter id="filter0_d" x="0.359131" y="0.453308" width="33.2154" height="20.2273" filterUnits="userSpaceOnUse" color-interpolation-filters="sRGB">
<feFlood flood-opacity="0" result="BackgroundImageFix"/>
<feColorMatrix in="SourceAlpha" type="matrix" values="0 0 0 0 0 0 0 0 0 0 0 0 0 0 0 0 0 0 127 0"/>
<feOffset dy="2"/>
<feGaussianBlur stdDeviation="1"/>
<feColorMatrix type="matrix" values="0 0 0 0 0 0 0 0 0 0 0 0 0 0 0 0 0 0 0.12 0"/>
<feBlend mode="normal" in2="BackgroundImageFix" result="effect1_dropShadow"/>
<feBlend mode="normal" in="SourceGraphic" in2="effect1_dropShadow" result="shape"/>
</filter>
</defs>
</svg>
