<svg width="54" height="54" viewBox="0 0 54 54" fill="none" xmlns="http://www.w3.org/2000/svg">
<path fill-rule="evenodd" clip-rule="evenodd" d="M30.7503 16.4547C28.3932 17.3124 26.9037 19.5246 27.0729 21.9456L27.1296 22.8798L26.1864 22.7655C22.7547 22.3272 19.7559 20.8404 17.2098 18.342L15.9651 17.1027L15.6447 18.018C14.9661 20.0583 15.3999 22.2129 16.8138 23.6619C17.568 24.4629 17.3979 24.5772 16.0974 24.1002C15.6447 23.9481 15.2487 23.8338 15.2109 23.8905C15.0795 24.0246 15.5313 25.7589 15.8895 26.4456C16.38 27.3996 17.379 28.3329 18.4734 28.8864L19.3977 29.3247L18.3042 29.3436C17.2485 29.3436 17.2107 29.3625 17.3241 29.7639C17.7012 31.0032 19.1907 32.319 20.8503 32.8914L22.0194 33.291L21.0015 33.9012C19.4931 34.7796 17.7201 35.2746 15.9471 35.3115C15.0975 35.3304 14.4 35.4069 14.4 35.4645C14.4 35.6544 16.7013 36.7218 18.0396 37.1421C22.0563 38.3814 26.8281 37.8468 30.411 35.7309C32.9571 34.2243 35.5023 31.2309 36.6912 28.332C37.3329 26.7885 37.9737 23.9661 37.9737 22.6134C37.9737 21.7359 38.0304 21.6216 39.0861 20.5731C39.7089 19.9629 40.293 19.296 40.4064 19.1052C40.5954 18.7425 40.5756 18.7425 39.6144 19.0665C38.0115 19.6389 37.7847 19.5624 38.5776 18.7047C39.1617 18.0945 39.8601 16.9884 39.8601 16.6644C39.8601 16.6077 39.5775 16.7022 39.2562 16.8741C38.9169 17.0649 38.1627 17.3511 37.5966 17.5221L36.5787 17.847L35.6544 17.217C35.145 16.8741 34.4295 16.4925 34.0515 16.3782C33.0894 16.1118 31.6179 16.1496 30.7503 16.4547ZM27 54C12.0888 54 0 41.9112 0 27C0 12.0879 12.0888 0 27 0C41.9112 0 54 12.0879 54 27C54 41.9112 41.9112 54 27 54Z" fill="#00ACED"/>
</svg>
