<svg width="54" height="54" viewBox="0 0 54 54" fill="none" xmlns="http://www.w3.org/2000/svg">
<path fill-rule="evenodd" clip-rule="evenodd" d="M35.5743 33.606C35.3241 33.606 35.1441 33.6762 35.0343 33.8256C34.9254 33.966 34.8723 34.2072 34.8723 34.542V35.3484H36.261V34.542C36.261 34.2072 36.2052 33.966 36.0945 33.8256C35.9901 33.6762 35.8128 33.606 35.5743 33.606ZM30.1581 33.5781C30.3687 33.5781 30.5334 33.6465 30.6477 33.7851C30.7584 33.9237 30.8142 34.1298 30.8142 34.3989V38.5245C30.8142 38.7819 30.7665 38.9628 30.6765 39.0744C30.5865 39.1887 30.4461 39.2445 30.2535 39.2445C30.1203 39.2445 29.9952 39.2148 29.8746 39.1581C29.7531 39.1023 29.628 39.0042 29.5011 38.8764V33.8985C29.6082 33.7887 29.7162 33.7068 29.8251 33.6546C29.934 33.6015 30.0447 33.5781 30.1581 33.5781ZM34.8732 36.5922V38.097C34.8732 38.5182 34.9245 38.8098 35.0262 38.9736C35.1324 39.1365 35.3079 39.2157 35.559 39.2157C35.8191 39.2157 36.0009 39.1473 36.1044 39.0096C36.207 38.8719 36.2619 38.5695 36.2619 38.0979V37.7334H37.8774V38.1438C37.8774 38.9637 37.6821 39.5802 37.2861 39.9969C36.8946 40.41 36.306 40.6152 35.5239 40.6152C34.821 40.6152 34.2657 40.3974 33.8616 39.9573C33.4584 39.5199 33.2532 38.916 33.2532 38.1447V34.5573C33.2532 33.8661 33.4773 33.2991 33.921 32.8635C34.3647 32.427 34.9362 32.2092 35.6409 32.2092C36.36 32.2092 36.9126 32.4117 37.2996 32.8158C37.6857 33.219 37.8774 33.7995 37.8774 34.5573V36.5949H34.8732V36.5922ZM32.0607 40.0455C31.8168 40.3479 31.4586 40.4964 30.9924 40.4964C30.6837 40.4964 30.411 40.4406 30.1716 40.3236C29.9313 40.2075 29.7045 40.0293 29.5002 39.7827V40.3956H27.9126V29.5668H29.5002V33.0543C29.7135 32.8113 29.9367 32.6241 30.1734 32.499C30.4137 32.3712 30.654 32.3091 30.8979 32.3091C31.3965 32.3091 31.7754 32.4792 32.0364 32.8176C32.301 33.1587 32.4306 33.6573 32.4306 34.3116V38.745C32.4306 39.3102 32.3073 39.7431 32.0607 40.0455ZM25.1622 40.3956V39.5172C24.8697 39.8421 24.57 40.0896 24.2541 40.257C23.94 40.4289 23.6367 40.5108 23.3415 40.5108C22.977 40.5108 22.707 40.3947 22.5198 40.1544C22.3389 39.915 22.2453 39.5622 22.2453 39.0843V32.4045H23.8149V38.5326C23.8149 38.7225 23.8482 38.8584 23.9112 38.9439C23.9805 39.0294 24.0876 39.0708 24.2334 39.0708C24.3486 39.0708 24.4962 39.015 24.6726 38.9016C24.8499 38.7891 25.0101 38.6469 25.1604 38.4741V32.4045H26.73V40.3947H25.1622V40.3956ZM19.7244 31.14V40.3956H17.9532V31.14H16.1226V29.5668H21.555V31.14H19.7244ZM26.9946 26.0802C26.9946 26.0793 37.8666 26.0964 39.1572 27.3852C40.4523 28.6767 40.4667 35.0478 40.4667 35.0847C40.4667 35.0847 40.4559 41.49 39.1572 42.7851C37.8666 44.0721 26.9946 44.1 26.9946 44.1C26.9946 44.1 16.1235 44.0721 14.8302 42.7842C13.536 41.4927 13.5333 35.1324 13.5333 35.0838C13.5333 35.0469 13.5369 28.6758 14.8302 27.3843C16.1244 26.0964 26.9946 26.0793 26.9946 26.0802ZM35.568 22.7295H33.7986V21.7575C33.4764 22.1148 33.1362 22.3902 32.7816 22.5756C32.4288 22.7628 32.0877 22.8564 31.7556 22.8564C31.3434 22.8564 31.0383 22.725 30.8313 22.4631C30.6252 22.2012 30.5208 21.8088 30.5208 21.2832V13.9284H32.2866V20.6757C32.2866 20.8836 32.3271 21.0348 32.4009 21.1275C32.4729 21.2211 32.5953 21.2679 32.76 21.2679C32.8887 21.2679 33.0543 21.2058 33.2532 21.0825C33.4512 20.9592 33.6339 20.8017 33.7977 20.6082V13.9284H35.5671V22.7295H35.568ZM25.9623 21.2292C26.0874 21.3615 26.2674 21.4263 26.5023 21.4263C26.7417 21.4263 26.9307 21.3588 27.0729 21.2256C27.2142 21.0888 27.2844 20.9034 27.2844 20.6694V15.8751C27.2844 15.6825 27.2124 15.5268 27.0675 15.408C26.9235 15.2901 26.7345 15.2316 26.5023 15.2316C26.2854 15.2316 26.1108 15.2901 25.9749 15.408C25.8417 15.5268 25.7724 15.6825 25.7724 15.8751V20.6694C25.7724 20.9097 25.8372 21.0951 25.9623 21.2292ZM24.6672 14.3127C25.1424 13.9086 25.7841 13.7061 26.586 13.7061C27.3168 13.7061 27.918 13.9194 28.3869 14.346C28.8522 14.7717 29.0862 15.3207 29.0862 15.9912V20.5371C29.0862 21.2895 28.8567 21.879 28.4004 22.3083C27.9387 22.7367 27.3096 22.9509 26.505 22.9509C25.7328 22.9509 25.1127 22.7295 24.6474 22.2885C24.1857 21.8457 23.9526 21.2508 23.9526 20.5029V15.9417C23.9517 15.2586 24.1893 14.7159 24.6672 14.3127ZM19.1358 10.8H17.1297L19.5003 18.0027V22.7295H21.492V17.7795L23.8086 10.8H21.7836L20.5542 15.5682H20.4291L19.1358 10.8ZM27 54C12.0888 54 0 41.9112 0 27C0 12.0879 12.0888 0 27 0C41.9112 0 54 12.0879 54 27C54 41.9112 41.9112 54 27 54Z" fill="#CF3427"/>
</svg>
